# xmcd
# Track frame offsets:
# 150
# 12860
# 27281
# 43072
# 57717
# 72600
# 85969
# 102683
# 117883
# 133196
# 148718
# 164919
# 183090
# 198105
# 214958
# 232375
# 251951
# 267440
#
# Disc length: 3787 seconds
# Revision: 0
# Processed by: cddbd v1.5.1PL2 Copyright (c) Steve Scherf et al.
# Submitted via: VisiTrax 2.9.10.228 - For more info visit www.synapsa.com
#
DISCID=270ec912
DTITLE=Bellamy Brothers - Our Best Country Songs
DYEAR=2006
DGENRE=
TTITLE0=Let Your Love Flow
TTITLE1=If I Said You Had A Beautiful Body
TTITLE2=Sugar Daddy
TTITLE3=Dancin`Covboys
TTITLE4=Lovers Live Longer
TTITLE5=Do You Love As good As You look
TTITLE6=For All The Wrong Reasons
TTITLE7=Redneck Girl
TTITLE8=I Need More Of You
TTITLE9=I`d Lie To You for Your Love
TTITLE10=Crazy From From The Heart
TTITLE11=Oold Hippi
TTITLE12=Big Love
TTITLE13=Feelin` The Feelin
TTITLE14=When I`m Away From You
TTITLE15=You Ain`t Just Whistlin Dixie
TTITLE16=Kids of The Baby Boom
TTITLE17=Santa Fe
EXTD=incl DVD
EXTT0=
EXTT1=
EXTT2=
EXTT3=
EXTT4=
EXTT5=
EXTT6=
EXTT7=
EXTT8=
EXTT9=
EXTT10=
EXTT11=
EXTT12=
EXTT13=
EXTT14=
EXTT15=
EXTT16=
EXTT17=
PLAYORDER=
